<svg width="221" height="24" viewBox="0 0 221 24" fill="none" xmlns="http://www.w3.org/2000/svg">
<path d="M10.3672 5.14925C10.6016 4.91494 10.6016 4.53505 10.3672 4.30073C10.1329 4.06642 9.75306 4.06642 9.5187 4.30073L3.23466 10.5847C2.12166 11.6977 2.12166 13.5022 3.23466 14.6152L9.5187 20.8992C9.75306 21.1336 10.1329 21.1336 10.3672 20.8992C10.6016 20.665 10.6016 20.2851 10.3672 20.0507L4.08318 13.7667C3.9165 13.6 3.7929 13.4064 3.71238 13.1999L21.0055 13.1999C21.3368 13.1999 21.6055 12.9313 21.6055 12.5999C21.6055 12.2686 21.3368 11.9999 21.0055 11.9999L3.7125 12C3.7929 11.7935 3.9165 11.6 4.08318 11.4333L10.3672 5.14925Z" fill="#F2F6FF" fill-opacity="0.4"/>
<path d="M62.456 19.312C61.512 19.312 60.6 19.16 59.72 18.856C58.856 18.536 58.144 18.048 57.584 17.392C57.024 16.72 56.736 15.856 56.72 14.8H58.256C58.256 14.848 58.272 14.984 58.304 15.208C58.336 15.432 58.416 15.696 58.544 16C58.688 16.288 58.912 16.584 59.216 16.888C59.52 17.176 59.944 17.416 60.488 17.608C61.032 17.8 61.728 17.896 62.576 17.896C63.52 17.896 64.24 17.76 64.736 17.488C65.232 17.2 65.568 16.88 65.744 16.528C65.936 16.16 66.032 15.872 66.032 15.664C66.048 15.104 65.896 14.656 65.576 14.32C65.256 13.984 64.824 13.712 64.28 13.504C63.752 13.296 63.168 13.112 62.528 12.952C61.888 12.792 61.248 12.624 60.608 12.448C59.984 12.256 59.408 12.016 58.88 11.728C58.352 11.424 57.936 11.032 57.632 10.552C57.328 10.072 57.192 9.456 57.224 8.704C57.256 7.984 57.504 7.368 57.968 6.856C58.432 6.344 59.048 5.952 59.816 5.68C60.6 5.392 61.488 5.248 62.48 5.248C63.392 5.248 64.232 5.416 65 5.752C65.784 6.072 66.408 6.56 66.872 7.216C67.336 7.872 67.552 8.688 67.52 9.664H66.008C66.024 9.056 65.904 8.56 65.648 8.176C65.408 7.776 65.088 7.472 64.688 7.264C64.288 7.056 63.872 6.912 63.44 6.832C63.024 6.736 62.656 6.688 62.336 6.688C61.328 6.688 60.496 6.888 59.84 7.288C59.184 7.688 58.848 8.208 58.832 8.848C58.832 9.408 58.992 9.856 59.312 10.192C59.632 10.528 60.056 10.8 60.584 11.008C61.128 11.2 61.72 11.368 62.36 11.512C63 11.656 63.632 11.824 64.256 12.016C64.896 12.192 65.48 12.424 66.008 12.712C66.536 13 66.952 13.392 67.256 13.888C67.56 14.384 67.696 15.016 67.664 15.784C67.632 16.536 67.384 17.176 66.92 17.704C66.456 18.216 65.84 18.616 65.072 18.904C64.304 19.176 63.432 19.312 62.456 19.312ZM71.2974 19L68.6814 9.568V9.208H70.1694L72.3774 17.68H72.4254L74.9454 9.208H76.3134L78.9054 17.68H78.9534L81.1134 9.208H82.6014V9.568L80.0094 19H77.8014L75.6654 11.896H75.6174L73.5054 19H71.2974ZM85.2298 8.176C84.8778 8.176 84.6378 8.088 84.5098 7.912C84.3978 7.72 84.3418 7.48 84.3418 7.192C84.3418 6.952 84.3978 6.744 84.5098 6.568C84.6378 6.376 84.8778 6.28 85.2298 6.28C85.5818 6.28 85.8138 6.376 85.9258 6.568C86.0538 6.744 86.1178 6.952 86.1178 7.192C86.1178 7.48 86.0538 7.72 85.9258 7.912C85.8138 8.088 85.5818 8.176 85.2298 8.176ZM84.4618 19V9.232H85.9978V19H84.4618ZM93.6959 19.24C93.0719 19.24 92.5359 19.136 92.0879 18.928C91.6559 18.704 91.3039 18.448 91.0319 18.16C90.7599 17.872 90.5519 17.6 90.4079 17.344C90.2799 17.088 90.1999 16.92 90.1679 16.84H90.1199V23.032H88.5359V9.232H89.8559L90.1199 11.68H90.1679C90.1999 11.6 90.2799 11.432 90.4079 11.176C90.5359 10.92 90.7279 10.64 90.9839 10.336C91.2559 10.032 91.6079 9.776 92.0399 9.568C92.4879 9.344 93.0399 9.232 93.6959 9.232C94.6399 9.232 95.4239 9.448 96.0479 9.88C96.6879 10.312 97.1679 10.912 97.4879 11.68C97.8239 12.432 97.9919 13.296 97.9919 14.272C97.9919 15.728 97.6239 16.92 96.8879 17.848C96.1519 18.776 95.0879 19.24 93.6959 19.24ZM93.3839 17.872C94.1359 17.872 94.7359 17.696 95.1839 17.344C95.6479 16.992 95.9759 16.544 96.1679 16C96.3759 15.44 96.4799 14.856 96.4799 14.248C96.4799 13.624 96.3679 13.04 96.1439 12.496C95.9199 11.952 95.5679 11.512 95.0879 11.176C94.6239 10.824 94.0079 10.648 93.2399 10.648C92.3119 10.648 91.5679 10.976 91.0079 11.632C90.4479 12.272 90.1679 13.144 90.1679 14.248C90.1679 15.368 90.4639 16.256 91.0559 16.912C91.6479 17.552 92.4239 17.872 93.3839 17.872ZM104.079 19.24C103.007 19.24 102.119 19 101.415 18.52C100.727 18.024 100.215 17.392 99.8786 16.624C99.5586 15.84 99.3986 15.032 99.3986 14.2C99.3986 13.288 99.5746 12.456 99.9266 11.704C100.295 10.936 100.823 10.328 101.511 9.88C102.215 9.432 103.055 9.208 104.031 9.208C105.279 9.208 106.319 9.616 107.151 10.432C107.983 11.232 108.431 12.312 108.495 13.672C108.511 13.736 108.519 13.832 108.519 13.96C108.519 14.072 108.519 14.176 108.519 14.272H100.887C100.887 15.408 101.159 16.304 101.703 16.96C102.263 17.6 103.047 17.92 104.055 17.92C104.807 17.92 105.447 17.728 105.975 17.344C106.519 16.96 106.855 16.44 106.983 15.784H108.495C108.335 16.776 107.863 17.6 107.079 18.256C106.295 18.912 105.295 19.24 104.079 19.24ZM100.935 13.432H106.935C106.935 13.096 106.839 12.696 106.647 12.232C106.471 11.768 106.167 11.368 105.735 11.032C105.319 10.68 104.743 10.504 104.007 10.504C103.335 10.504 102.783 10.648 102.351 10.936C101.919 11.224 101.591 11.592 101.367 12.04C101.143 12.488 100.999 12.952 100.935 13.432ZM120.65 19.24C119.738 19.24 118.922 19.048 118.202 18.664C117.482 18.28 116.914 17.72 116.498 16.984C116.082 16.248 115.874 15.36 115.874 14.32C115.906 13.296 116.122 12.4 116.522 11.632C116.938 10.864 117.506 10.272 118.226 9.856C118.946 9.424 119.77 9.208 120.698 9.208C121.562 9.208 122.314 9.368 122.954 9.688C123.594 10.008 124.106 10.44 124.49 10.984C124.874 11.528 125.114 12.128 125.21 12.784H123.794C123.634 12.08 123.282 11.536 122.738 11.152C122.21 10.768 121.546 10.576 120.746 10.576C119.722 10.576 118.906 10.92 118.298 11.608C117.706 12.28 117.402 13.16 117.386 14.248C117.386 15.352 117.674 16.232 118.25 16.888C118.842 17.528 119.666 17.848 120.722 17.848C121.49 17.848 122.154 17.656 122.714 17.272C123.274 16.888 123.634 16.336 123.794 15.616H125.21C125.114 16.288 124.866 16.896 124.466 17.44C124.082 17.984 123.562 18.424 122.906 18.76C122.266 19.08 121.514 19.24 120.65 19.24ZM130.446 19.216C129.55 19.216 128.814 19 128.238 18.568C127.662 18.12 127.23 17.52 126.942 16.768C126.67 16.016 126.534 15.16 126.534 14.2C126.534 12.728 126.854 11.52 127.494 10.576C128.15 9.616 129.134 9.136 130.446 9.136C131.118 9.136 131.678 9.256 132.126 9.496C132.59 9.72 132.958 10 133.23 10.336C133.518 10.672 133.726 10.992 133.854 11.296H133.878V9.232H135.462V19H134.142L133.902 17.104H133.854C133.71 17.424 133.502 17.752 133.23 18.088C132.958 18.408 132.59 18.68 132.126 18.904C131.678 19.112 131.118 19.216 130.446 19.216ZM131.046 17.848C132.038 17.848 132.75 17.52 133.182 16.864C133.63 16.208 133.854 15.328 133.854 14.224C133.854 13.04 133.622 12.136 133.158 11.512C132.71 10.888 132.006 10.576 131.046 10.576C129.99 10.576 129.23 10.928 128.766 11.632C128.318 12.32 128.094 13.176 128.094 14.2C128.094 15.272 128.326 16.152 128.79 16.84C129.254 17.512 130.006 17.848 131.046 17.848ZM137.496 19V9.232H138.888L139.056 11.8C139.152 11.368 139.344 10.952 139.632 10.552C139.92 10.152 140.312 9.832 140.808 9.592C141.32 9.336 141.952 9.216 142.704 9.232H143.16V10.936H142.68C141.656 10.936 140.88 11.088 140.352 11.392C139.84 11.68 139.488 12.088 139.296 12.616C139.12 13.144 139.032 13.752 139.032 14.44V19H137.496ZM148.774 19.24C147.83 19.24 147.038 19.024 146.398 18.592C145.774 18.16 145.302 17.568 144.982 16.816C144.678 16.048 144.526 15.192 144.526 14.248C144.526 12.792 144.886 11.592 145.606 10.648C146.326 9.704 147.39 9.232 148.798 9.232C149.454 9.232 149.998 9.344 150.43 9.568C150.878 9.776 151.238 10.032 151.51 10.336C151.782 10.64 151.982 10.92 152.11 11.176C152.238 11.432 152.318 11.6 152.35 11.68H152.398L152.422 5.488H154.006V19H152.662L152.422 16.84H152.374C152.342 16.92 152.254 17.088 152.11 17.344C151.966 17.6 151.75 17.872 151.462 18.16C151.19 18.448 150.83 18.704 150.382 18.928C149.95 19.136 149.414 19.24 148.774 19.24ZM149.158 17.872C150.102 17.872 150.87 17.552 151.462 16.912C152.07 16.256 152.374 15.368 152.374 14.248C152.374 13.144 152.094 12.272 151.534 11.632C150.974 10.976 150.222 10.648 149.278 10.648C148.526 10.648 147.91 10.824 147.43 11.176C146.95 11.512 146.598 11.952 146.374 12.496C146.15 13.04 146.038 13.624 146.038 14.248C146.038 14.856 146.142 15.44 146.35 16C146.558 16.544 146.886 16.992 147.334 17.344C147.782 17.696 148.39 17.872 149.158 17.872ZM159.917 19.24C158.989 19.24 158.221 19.048 157.613 18.664C157.021 18.264 156.573 17.8 156.269 17.272C155.981 16.744 155.837 16.272 155.837 15.856H157.325C157.325 15.872 157.333 15.992 157.349 16.216C157.381 16.44 157.469 16.696 157.613 16.984C157.757 17.272 158.005 17.528 158.357 17.752C158.709 17.96 159.221 18.064 159.893 18.064C160.613 18.064 161.229 17.936 161.741 17.68C162.269 17.424 162.525 17.024 162.509 16.48C162.509 16.016 162.349 15.664 162.029 15.424C161.725 15.168 161.325 14.976 160.829 14.848C160.333 14.704 159.813 14.568 159.269 14.44C158.725 14.312 158.205 14.152 157.709 13.96C157.229 13.752 156.837 13.464 156.533 13.096C156.229 12.728 156.077 12.216 156.077 11.56C156.077 10.76 156.437 10.128 157.157 9.664C157.877 9.184 158.797 8.944 159.917 8.944C160.541 8.944 161.173 9.048 161.813 9.256C162.453 9.448 162.981 9.792 163.397 10.288C163.813 10.768 164.005 11.448 163.973 12.328H162.533C162.565 11.72 162.429 11.264 162.125 10.96C161.821 10.656 161.453 10.456 161.021 10.36C160.605 10.248 160.221 10.192 159.869 10.192C159.181 10.192 158.613 10.32 158.165 10.576C157.733 10.832 157.517 11.192 157.517 11.656C157.517 12.104 157.669 12.448 157.973 12.688C158.293 12.912 158.693 13.096 159.173 13.24C159.669 13.368 160.189 13.496 160.733 13.624C161.293 13.736 161.821 13.896 162.317 14.104C162.813 14.312 163.213 14.608 163.517 14.992C163.837 15.376 163.997 15.904 163.997 16.576C163.997 17.504 163.605 18.184 162.821 18.616C162.037 19.032 161.069 19.24 159.917 19.24Z" fill="#F2F6FF" fill-opacity="0.4"/>
<path d="M210.639 20.0509C210.404 20.2853 210.404 20.6651 210.639 20.8995C210.873 21.1338 211.253 21.1338 211.487 20.8995L217.771 14.6155C218.884 13.5025 218.884 11.698 217.771 10.585L211.487 4.30095C211.253 4.06659 210.873 4.06659 210.639 4.30095C210.404 4.53519 210.404 4.91511 210.639 5.14947L216.923 11.4335C217.089 11.6002 217.213 11.7937 217.293 12.0003L200 12.0003C199.669 12.0003 199.4 12.2689 199.4 12.6002C199.4 12.9316 199.669 13.2002 200 13.2002L217.293 13.2002C217.213 13.4067 217.089 13.6002 216.923 13.7669L210.639 20.0509Z" fill="#F2F6FF" fill-opacity="0.4"/>
</svg>
