<svg width="160" height="124" viewBox="0 0 160 124" fill="none" xmlns="http://www.w3.org/2000/svg">
<g filter="url(#filter0_d_418_8707)">
<path fill-rule="evenodd" clip-rule="evenodd" d="M127.924 62C127.924 62 106.45 92 79.9618 92C53.4733 92 32 62 32 62C32 62 53.4733 32 79.9618 32C106.45 32 127.924 62 127.924 62ZM101.852 62C101.852 74.0546 92.0516 83.827 79.9618 83.827C67.872 83.827 58.0716 74.0546 58.0716 62C58.0716 49.9454 67.872 40.173 79.9618 40.173C92.0516 40.173 101.852 49.9454 101.852 62ZM79.9618 74.5075C86.8897 74.5075 92.5056 68.9076 92.5056 62C92.5056 55.0924 86.8897 49.4925 79.9618 49.4925C73.0339 49.4925 67.418 55.0924 67.418 62C67.418 68.9076 73.0339 74.5075 79.9618 74.5075Z" fill="white"/>
</g>
<defs>
<filter id="filter0_d_418_8707" x="0" y="0" width="159.924" height="124" filterUnits="userSpaceOnUse" color-interpolation-filters="sRGB">
<feFlood flood-opacity="0" result="BackgroundImageFix"/>
<feColorMatrix in="SourceAlpha" type="matrix" values="0 0 0 0 0 0 0 0 0 0 0 0 0 0 0 0 0 0 127 0" result="hardAlpha"/>
<feOffset/>
<feGaussianBlur stdDeviation="16"/>
<feComposite in2="hardAlpha" operator="out"/>
<feColorMatrix type="matrix" values="0 0 0 0 1 0 0 0 0 1 0 0 0 0 1 0 0 0 0.7 0"/>
<feBlend mode="normal" in2="BackgroundImageFix" result="effect1_dropShadow_418_8707"/>
<feBlend mode="normal" in="SourceGraphic" in2="effect1_dropShadow_418_8707" result="shape"/>
</filter>
</defs>
</svg>
