<svg width="134" height="124" viewBox="0 0 134 124" fill="none" xmlns="http://www.w3.org/2000/svg">
<g filter="url(#filter0_d_418_8705)">
<path d="M74.9863 86.3203C82.5966 80.6671 93.5789 71.8166 98.1555 64.7383C101.58 59.4502 102.694 52.8986 101.205 46.8071C98.0223 32.9312 80.4001 27.2612 69.4232 36.56C68.8059 37.0795 68.2368 37.6554 67.6526 38.2468C67.4143 38.4882 67.1733 38.7321 66.9254 38.9758C66.6775 38.7321 66.4364 38.4881 66.1981 38.2468C65.614 37.6554 65.0449 37.0795 64.4275 36.56C53.4507 27.2612 35.8285 32.9312 32.6461 46.8071C31.1566 52.8986 32.2707 59.4502 35.6953 64.7383C40.2718 71.8166 51.2542 80.6671 58.8645 86.3203C60.985 87.8959 66.9254 92 66.9254 92C66.9254 92 72.8658 87.8959 74.9863 86.3203Z" fill="white"/>
<path d="M74.6881 85.919L74.6881 85.919C73.6348 86.7017 71.6257 88.1173 69.8743 89.3412C68.9998 89.9522 68.1914 90.5142 67.6017 90.9233C67.3214 91.1178 67.0905 91.2777 66.9254 91.392C66.7603 91.2777 66.5294 91.1178 66.2491 90.9233C65.6593 90.5142 64.851 89.9522 63.9765 89.3412C62.225 88.1173 60.216 86.7017 59.1627 85.919L59.1626 85.919C55.364 83.0972 50.7286 79.481 46.4748 75.6904C42.2136 71.8932 38.3655 67.9474 36.1152 64.4668L36.115 64.4665C32.7648 59.2933 31.6752 52.883 33.1318 46.9259L33.1319 46.9259L33.1335 46.9189C36.2293 33.4201 53.404 27.8769 64.1043 36.9415L64.1056 36.9425C64.7024 37.4447 65.2554 38.004 65.8424 38.5982C66.0804 38.8392 66.3239 39.0857 66.5749 39.3323L66.9254 39.6769L67.2759 39.3323C67.5268 39.0857 67.7703 38.8393 68.0084 38.5982C68.5953 38.004 69.1484 37.4447 69.7452 36.9425L69.7464 36.9415C80.4468 27.8769 97.6215 33.4201 100.717 46.9189L100.719 46.9259C102.176 52.883 101.086 59.2933 97.7358 64.4665L97.7356 64.4668C95.4852 67.9474 91.6372 71.8932 87.3759 75.6904C83.1221 79.481 78.4868 83.0972 74.6881 85.919Z" stroke="white" stroke-opacity="0.7"/>
</g>
<defs>
<filter id="filter0_d_418_8705" x="0" y="0" width="133.851" height="124" filterUnits="userSpaceOnUse" color-interpolation-filters="sRGB">
<feFlood flood-opacity="0" result="BackgroundImageFix"/>
<feColorMatrix in="SourceAlpha" type="matrix" values="0 0 0 0 0 0 0 0 0 0 0 0 0 0 0 0 0 0 127 0" result="hardAlpha"/>
<feOffset/>
<feGaussianBlur stdDeviation="16"/>
<feComposite in2="hardAlpha" operator="out"/>
<feColorMatrix type="matrix" values="0 0 0 0 1 0 0 0 0 1 0 0 0 0 1 0 0 0 0.7 0"/>
<feBlend mode="normal" in2="BackgroundImageFix" result="effect1_dropShadow_418_8705"/>
<feBlend mode="normal" in="SourceGraphic" in2="effect1_dropShadow_418_8705" result="shape"/>
</filter>
</defs>
</svg>
