<svg width="22" height="21" viewBox="0 0 22 21" fill="none" xmlns="http://www.w3.org/2000/svg">
<path fill-rule="evenodd" clip-rule="evenodd" d="M21 10.5C21 16.299 16.299 21 10.5 21C4.70101 21 0 16.299 0 10.5C0 4.70101 4.70101 0 10.5 0C16.299 0 21 4.70101 21 10.5ZM10.5 20C15.7467 20 20 15.7467 20 10.5C20 5.25329 15.7467 1 10.5 1C5.25329 1 1 5.25329 1 10.5C1 15.7467 5.25329 20 10.5 20Z" fill="url(#paint0_linear_1143_12296)"/>
<g filter="url(#filter0_f_1143_12296)">
<path d="M4 10.5C4 15.7467 7.80558 20 12.5 20C17.1944 20 21 15.7467 21 10.5C21 5.25329 17.1944 1 12.5 1C7.80558 1 4 5.25329 4 10.5Z" fill="url(#paint1_linear_1143_12296)"/>
</g>
<defs>
<filter id="filter0_f_1143_12296" x="3" y="0" width="19" height="21" filterUnits="userSpaceOnUse" color-interpolation-filters="sRGB">
<feFlood flood-opacity="0" result="BackgroundImageFix"/>
<feBlend mode="normal" in="SourceGraphic" in2="BackgroundImageFix" result="shape"/>
<feGaussianBlur stdDeviation="0.5" result="effect1_foregroundBlur_1143_12296"/>
</filter>
<linearGradient id="paint0_linear_1143_12296" x1="11.5" y1="11" x2="4.5" y2="11" gradientUnits="userSpaceOnUse">
<stop stop-color="#EEECE7"/>
<stop offset="1" stop-color="#EEECE7" stop-opacity="0.09"/>
</linearGradient>
<linearGradient id="paint1_linear_1143_12296" x1="12" y1="11" x2="6.83333" y2="10.9524" gradientUnits="userSpaceOnUse">
<stop stop-color="#EEECE7"/>
<stop offset="1" stop-color="#EEECE7" stop-opacity="0.57"/>
</linearGradient>
</defs>
</svg>
