<svg width="22" height="21" viewBox="0 0 22 21" fill="none" xmlns="http://www.w3.org/2000/svg">
<g filter="url(#filter0_f_1143_12299)">
<path d="M18 10.5C18 15.7467 14.1944 20 9.5 20C4.80558 20 1 15.7467 1 10.5C1 5.25329 4.80558 1 9.5 1C14.1944 1 18 5.25329 18 10.5Z" fill="url(#paint0_linear_1143_12299)"/>
</g>
<path fill-rule="evenodd" clip-rule="evenodd" d="M1 10.5C1 16.299 5.70101 21 11.5 21C17.299 21 22 16.299 22 10.5C22 4.70101 17.299 0 11.5 0C5.70101 0 1 4.70101 1 10.5ZM11.5 20C6.25329 20 2 15.7467 2 10.5C2 5.25329 6.25329 1 11.5 1C16.7467 1 21 5.25329 21 10.5C21 15.7467 16.7467 20 11.5 20Z" fill="url(#paint1_linear_1143_12299)"/>
<defs>
<filter id="filter0_f_1143_12299" x="0" y="0" width="19" height="21" filterUnits="userSpaceOnUse" color-interpolation-filters="sRGB">
<feFlood flood-opacity="0" result="BackgroundImageFix"/>
<feBlend mode="normal" in="SourceGraphic" in2="BackgroundImageFix" result="shape"/>
<feGaussianBlur stdDeviation="0.5" result="effect1_foregroundBlur_1143_12299"/>
</filter>
<linearGradient id="paint0_linear_1143_12299" x1="10" y1="11" x2="15.1667" y2="10.9524" gradientUnits="userSpaceOnUse">
<stop stop-color="#EEECE7"/>
<stop offset="1" stop-color="#EEECE7" stop-opacity="0.57"/>
</linearGradient>
<linearGradient id="paint1_linear_1143_12299" x1="10.5" y1="11" x2="17.5" y2="11" gradientUnits="userSpaceOnUse">
<stop stop-color="#EEECE7"/>
<stop offset="1" stop-color="#EEECE7" stop-opacity="0.09"/>
</linearGradient>
</defs>
</svg>
