<svg width="21" height="21" viewBox="0 0 21 21" fill="none" xmlns="http://www.w3.org/2000/svg">
<path d="M20 10.5C20 15.7467 15.7467 20 10.5 20C5.25329 20 1 15.7467 1 10.5C1 5.25329 5.25329 1 10.5 1C15.7467 1 20 5.25329 20 10.5Z" fill="url(#paint0_linear_1143_12290)"/>
<path fill-rule="evenodd" clip-rule="evenodd" d="M21 10.5C21 16.299 16.299 21 10.5 21C4.70101 21 0 16.299 0 10.5C0 4.70101 4.70101 0 10.5 0C16.299 0 21 4.70101 21 10.5ZM10.5 20C15.7467 20 20 15.7467 20 10.5C20 5.25329 15.7467 1 10.5 1C5.25329 1 1 5.25329 1 10.5C1 15.7467 5.25329 20 10.5 20Z" fill="url(#paint1_linear_1143_12290)"/>
<defs>
<linearGradient id="paint0_linear_1143_12290" x1="1" y1="11" x2="11" y2="11" gradientUnits="userSpaceOnUse">
<stop stop-color="#EEECE7"/>
<stop offset="1" stop-color="#EEECE7" stop-opacity="0"/>
</linearGradient>
<linearGradient id="paint1_linear_1143_12290" x1="3.50229e-07" y1="11" x2="13" y2="11" gradientUnits="userSpaceOnUse">
<stop stop-color="#EEECE7"/>
<stop offset="1" stop-color="#EEECE7" stop-opacity="0.09"/>
</linearGradient>
</defs>
</svg>
