<svg width="318" height="366" viewBox="0 0 318 366" fill="none" xmlns="http://www.w3.org/2000/svg">
<g filter="url(#filter0_d_675_14682)">
<path d="M58.0488 227.497C55.8548 227.498 54.0747 225.732 54.0728 223.552L54.0031 141.499C54.0013 139.318 55.7783 137.549 57.9724 137.547L109.951 137.503C112.145 137.502 113.925 139.268 113.927 141.448L113.996 223.501C113.998 225.682 112.221 227.451 110.027 227.453L58.0488 227.497Z" fill="#EEECE7"/>
</g>
<g filter="url(#filter1_d_675_14682)">
<path d="M210.048 227.994C207.854 227.996 206.074 226.229 206.072 224.049L206.002 141.996C206 139.815 207.777 138.046 209.971 138.044L261.95 138C264.144 137.999 265.924 139.765 265.926 141.945L265.995 223.998C265.997 226.179 264.22 227.948 262.026 227.95L210.048 227.994Z" fill="#EEECE7"/>
</g>
<g filter="url(#filter2_d_675_14682)">
<path d="M133.973 333.994C131.779 333.996 129.998 332.229 129.997 330.049L129.927 247.996C129.925 245.815 131.702 244.046 133.896 244.044L185.875 244C188.069 243.999 189.849 245.765 189.851 247.945L189.92 329.998C189.922 332.179 188.145 333.948 185.951 333.95L133.973 333.994Z" fill="#EEECE7"/>
</g>
<g filter="url(#filter3_d_675_14682)">
<path d="M133.973 227.994C131.779 227.996 129.998 226.229 129.997 224.049L129.927 141.996C129.925 139.815 131.702 138.046 133.896 138.044L185.875 138C188.069 137.999 189.849 139.765 189.851 141.945L189.92 223.998C189.922 226.179 188.145 227.948 185.951 227.95L133.973 227.994Z" fill="#EEECE7"/>
</g>
<g filter="url(#filter4_d_675_14682)">
<path d="M186.027 32.0063C188.221 32.0044 190.002 33.7706 190.003 35.9511L190.073 118.004C190.075 120.185 188.298 121.954 186.104 121.956L134.125 122C131.931 122.001 130.151 120.235 130.149 118.055L130.08 36.0018C130.078 33.8213 131.855 32.0521 134.049 32.0502L186.027 32.0063Z" fill="#EEECE7"/>
</g>
<defs>
<filter id="filter0_d_675_14682" x="22.0029" y="105.503" width="123.993" height="153.994" filterUnits="userSpaceOnUse" color-interpolation-filters="sRGB">
<feFlood flood-opacity="0" result="BackgroundImageFix"/>
<feColorMatrix in="SourceAlpha" type="matrix" values="0 0 0 0 0 0 0 0 0 0 0 0 0 0 0 0 0 0 127 0" result="hardAlpha"/>
<feOffset/>
<feGaussianBlur stdDeviation="16"/>
<feComposite in2="hardAlpha" operator="out"/>
<feColorMatrix type="matrix" values="0 0 0 0 1 0 0 0 0 1 0 0 0 0 1 0 0 0 0.7 0"/>
<feBlend mode="normal" in2="BackgroundImageFix" result="effect1_dropShadow_675_14682"/>
<feBlend mode="normal" in="SourceGraphic" in2="effect1_dropShadow_675_14682" result="shape"/>
</filter>
<filter id="filter1_d_675_14682" x="174.002" y="106" width="123.993" height="153.994" filterUnits="userSpaceOnUse" color-interpolation-filters="sRGB">
<feFlood flood-opacity="0" result="BackgroundImageFix"/>
<feColorMatrix in="SourceAlpha" type="matrix" values="0 0 0 0 0 0 0 0 0 0 0 0 0 0 0 0 0 0 127 0" result="hardAlpha"/>
<feOffset/>
<feGaussianBlur stdDeviation="16"/>
<feComposite in2="hardAlpha" operator="out"/>
<feColorMatrix type="matrix" values="0 0 0 0 1 0 0 0 0 1 0 0 0 0 1 0 0 0 0.7 0"/>
<feBlend mode="normal" in2="BackgroundImageFix" result="effect1_dropShadow_675_14682"/>
<feBlend mode="normal" in="SourceGraphic" in2="effect1_dropShadow_675_14682" result="shape"/>
</filter>
<filter id="filter2_d_675_14682" x="97.9268" y="212" width="123.993" height="153.994" filterUnits="userSpaceOnUse" color-interpolation-filters="sRGB">
<feFlood flood-opacity="0" result="BackgroundImageFix"/>
<feColorMatrix in="SourceAlpha" type="matrix" values="0 0 0 0 0 0 0 0 0 0 0 0 0 0 0 0 0 0 127 0" result="hardAlpha"/>
<feOffset/>
<feGaussianBlur stdDeviation="16"/>
<feComposite in2="hardAlpha" operator="out"/>
<feColorMatrix type="matrix" values="0 0 0 0 1 0 0 0 0 1 0 0 0 0 1 0 0 0 0.7 0"/>
<feBlend mode="normal" in2="BackgroundImageFix" result="effect1_dropShadow_675_14682"/>
<feBlend mode="normal" in="SourceGraphic" in2="effect1_dropShadow_675_14682" result="shape"/>
</filter>
<filter id="filter3_d_675_14682" x="97.9268" y="106" width="123.993" height="153.994" filterUnits="userSpaceOnUse" color-interpolation-filters="sRGB">
<feFlood flood-opacity="0" result="BackgroundImageFix"/>
<feColorMatrix in="SourceAlpha" type="matrix" values="0 0 0 0 0 0 0 0 0 0 0 0 0 0 0 0 0 0 127 0" result="hardAlpha"/>
<feOffset/>
<feGaussianBlur stdDeviation="16"/>
<feComposite in2="hardAlpha" operator="out"/>
<feColorMatrix type="matrix" values="0 0 0 0 1 0 0 0 0 1 0 0 0 0 1 0 0 0 0.7 0"/>
<feBlend mode="normal" in2="BackgroundImageFix" result="effect1_dropShadow_675_14682"/>
<feBlend mode="normal" in="SourceGraphic" in2="effect1_dropShadow_675_14682" result="shape"/>
</filter>
<filter id="filter4_d_675_14682" x="98.0801" y="0.00585938" width="123.993" height="153.994" filterUnits="userSpaceOnUse" color-interpolation-filters="sRGB">
<feFlood flood-opacity="0" result="BackgroundImageFix"/>
<feColorMatrix in="SourceAlpha" type="matrix" values="0 0 0 0 0 0 0 0 0 0 0 0 0 0 0 0 0 0 127 0" result="hardAlpha"/>
<feOffset/>
<feGaussianBlur stdDeviation="16"/>
<feComposite in2="hardAlpha" operator="out"/>
<feColorMatrix type="matrix" values="0 0 0 0 1 0 0 0 0 1 0 0 0 0 1 0 0 0 0.7 0"/>
<feBlend mode="normal" in2="BackgroundImageFix" result="effect1_dropShadow_675_14682"/>
<feBlend mode="normal" in="SourceGraphic" in2="effect1_dropShadow_675_14682" result="shape"/>
</filter>
</defs>
</svg>
