<svg width="83" height="100" viewBox="0 0 83 100" fill="none" xmlns="http://www.w3.org/2000/svg">
    <path
        d="M0 27.8534C0 11.2722 11.3167 23.9129 25.2765 23.9129C39.2363 23.9129 43.5441 0 57.5039 0C71.4637 0 82.7804 11.2722 82.7804 27.8534C82.7804 44.4346 61.6043 32.875 57.5039 43.8031C54.4209 52.0196 60.0316 49.5514 60.0316 66.1326C60.0316 82.7138 71.4637 96.1556 57.5039 96.1556C43.5441 96.1556 49.6355 56.9575 43.128 55.1343C34.0359 52.5869 25.2765 96.1556 25.2765 96.1556C9.63665 110.792 21.485 80.0868 21.485 63.5056C21.485 46.9244 0 44.4346 0 27.8534Z"
        fill="black" />
</svg>
    